<svg width="24" height="24" viewBox="0 0 24 24" fill="none" xmlns="http://www.w3.org/2000/svg">
<path d="M9.9999 9.60002C9.9999 9.04774 9.55219 8.60002 8.9999 8.60002C8.44762 8.60002 7.9999 9.04774 7.9999 9.60002H8.9999H9.9999ZM7.9999 21.6C7.9999 22.1523 8.44762 22.6 8.9999 22.6C9.55219 22.6 9.9999 22.1523 9.9999 21.6H8.9999H7.9999ZM5.9999 2.40002V3.40002H17.9999V2.40002V1.40002H5.9999V2.40002ZM21.5999 6.00002H20.5999V18H21.5999H22.5999V6.00002H21.5999ZM17.9999 21.6V20.6H5.9999V21.6V22.6H17.9999V21.6ZM2.3999 18H3.3999V6.00002H2.3999H1.3999V18H2.3999ZM5.9999 21.6V20.6C4.56396 20.6 3.3999 19.436 3.3999 18H2.3999H1.3999C1.3999 20.5405 3.45939 22.6 5.9999 22.6V21.6ZM21.5999 18H20.5999C20.5999 19.436 19.4358 20.6 17.9999 20.6V21.6V22.6C20.5404 22.6 22.5999 20.5405 22.5999 18H21.5999ZM17.9999 2.40002V3.40002C19.4358 3.40002 20.5999 4.56408 20.5999 6.00002H21.5999H22.5999C22.5999 3.45951 20.5404 1.40002 17.9999 1.40002V2.40002ZM5.9999 2.40002V1.40002C3.45939 1.40002 1.3999 3.45951 1.3999 6.00002H2.3999H3.3999C3.3999 4.56408 4.56396 3.40002 5.9999 3.40002V2.40002ZM8.9999 9.60002H7.9999V21.6H8.9999H9.9999V9.60002H8.9999ZM2.9999 9.00002V10H20.9999V9.00002V8.00002H2.9999V9.00002Z" fill="#191919"/>
</svg>
