<svg width="36" height="36" viewBox="0 0 36 36" fill="none" xmlns="http://www.w3.org/2000/svg">
<circle cx="18" cy="18" r="18" fill="#3371F7"/>
<path d="M16.0254 8.06897C18.0097 8.06912 19.7292 9.19578 20.584 10.8434C21.2397 10.6549 21.9468 10.5514 22.6836 10.5514C26.1115 10.5515 28.8906 12.7749 28.8907 15.5172C28.8907 17.8215 26.9281 19.7587 24.2676 20.319C24.7991 21.1276 25.1093 22.0945 25.1094 23.1344C25.1094 25.9703 22.8105 28.2692 19.9746 28.2692C17.9006 28.2691 16.115 27.0392 15.3047 25.2692C14.7794 25.3848 14.2265 25.4479 13.6553 25.4479C10.2274 25.4479 7.44846 23.2253 7.44827 20.483C7.44827 18.3185 9.17968 16.4782 11.5948 15.7985C11.1478 15.0369 10.8907 14.1506 10.8907 13.2037C10.8907 10.3679 13.1896 8.06897 16.0254 8.06897Z" fill="url(#paint0_linear_42_1583)"/>
<defs>
<linearGradient id="paint0_linear_42_1583" x1="21.5553" y1="12.4702" x2="21.5553" y2="22.7397" gradientUnits="userSpaceOnUse">
<stop stop-color="#F38078"/>
<stop offset="1" stop-color="#F1AE6A"/>
</linearGradient>
</defs>
</svg>
